<?xml version="1.0" encoding="UTF-8" standalone="no"?>
<!-- Created with Inkscape (http://www.inkscape.org/) -->

<svg
   width="30.564575mm"
   height="7.9586411mm"
   viewBox="0 0 30.564575 7.9586411"
   version="1.1"
   id="svg1"
   inkscape:version="1.3.2 (091e20ef0f, 2023-11-25)"
   sodipodi:docname="gizmo-light.svg"
   xmlns:inkscape="http://www.inkscape.org/namespaces/inkscape"
   xmlns:sodipodi="http://sodipodi.sourceforge.net/DTD/sodipodi-0.dtd"
   xmlns="http://www.w3.org/2000/svg"
   xmlns:svg="http://www.w3.org/2000/svg">
  <sodipodi:namedview
     id="namedview1"
     pagecolor="#505050"
     bordercolor="#eeeeee"
     borderopacity="1"
     inkscape:showpageshadow="0"
     inkscape:pageopacity="0"
     inkscape:pagecheckerboard="0"
     inkscape:deskcolor="#d1d1d1"
     inkscape:document-units="mm"
     inkscape:zoom="4.2482356"
     inkscape:cx="84.034887"
     inkscape:cy="43.429794"
     inkscape:window-width="1916"
     inkscape:window-height="1041"
     inkscape:window-x="0"
     inkscape:window-y="0"
     inkscape:window-maximized="1"
     inkscape:current-layer="layer1" />
  <defs
     id="defs1" />
  <g
     inkscape:label="Layer 1"
     inkscape:groupmode="layer"
     id="layer1"
     transform="translate(-35.522211,-91.328887)">
    <path
       style="font-size:10.5833px;line-height:125%;font-family:C059;-inkscape-font-specification:C059;letter-spacing:0px;word-spacing:0px;stroke-width:0.264583px"
       d="m 41.956857,91.413553 h -0.402166 l -0.412748,0.634998 c -0.687915,-0.539748 -1.15358,-0.719664 -1.926161,-0.719664 -0.83608,0 -1.492245,0.232832 -2.158993,0.772581 -1.047747,0.846664 -1.534578,1.915577 -1.534578,3.344322 0,1.079497 0.306915,1.979077 0.93133,2.666992 0.656165,0.740831 1.629828,1.174746 2.645825,1.174746 0.888997,0 1.513412,-0.275166 2.201326,-0.96308 l 0.391582,0.952497 h 0.444499 v -2.328326 c 0,-0.539748 0,-0.560915 0.0635,-0.656165 0.09525,-0.116416 0.285749,-0.148166 0.888997,-0.148166 h 0.158749 V 95.646873 H 39.88253 v 0.497415 h 0.201083 c 0.888997,0 0.96308,0.05292 0.96308,0.645581 0,0.455082 -0.07408,0.867831 -0.211666,1.12183 -0.264582,0.518582 -0.941914,0.878414 -1.629828,0.878414 -0.687915,0 -1.365246,-0.349249 -1.725078,-0.878414 -0.391582,-0.592665 -0.560915,-1.333496 -0.560915,-2.465909 0,-2.360076 0.783164,-3.619488 2.254243,-3.619488 1.206496,0 2.042577,0.86783 2.476492,2.561158 h 0.455082 z m 3.53482,2.783408 -1.98966,0.116416 v 0.455082 h 0.539748 c 0.402166,0.01058 0.455082,0.07408 0.455082,0.529165 v 2.529409 0.497415 c -0.01058,0.158749 -0.02117,0.222249 -0.0635,0.275166 -0.07408,0.09525 -0.275165,0.137583 -0.730247,0.148166 h -0.07408 v 0.380999 h 2.741074 V 98.74778 h -0.07408 C 45.586933,98.72661 45.491683,98.6737 45.491683,98.292698 v -0.465665 z m -0.497415,-2.635242 c -0.338665,0 -0.613831,0.275166 -0.613831,0.613832 0,0.338665 0.275166,0.613831 0.603248,0.613831 0.349249,0 0.624415,-0.275166 0.624415,-0.613831 0,-0.338666 -0.275166,-0.613832 -0.613832,-0.613832 z m 6.19123,2.635242 h -3.820571 l -0.09525,1.788578 h 0.423332 c 0.08467,-0.941914 0.497415,-1.344079 1.344079,-1.333496 h 0.920747 l -2.88924,4.095737 v 0.380999 h 4.116903 l 0.07408,-1.894411 H 50.83624 c -0.105833,1.037163 -0.518581,1.449912 -1.460495,1.439329 h -1.079497 l 2.889241,-4.095737 z m 2.688168,0 -1.883827,0.116416 v 0.455082 h 0.433915 c 0.402166,0.01058 0.455082,0.07408 0.455082,0.529165 v 2.529409 0.412748 0.08467 c -0.01058,0.158749 -0.02117,0.222249 -0.0635,0.275166 -0.07408,0.09525 -0.275165,0.137583 -0.730247,0.148166 h -0.04233 v 0.380999 h 2.666992 v -0.380999 h -0.04233 c -0.698498,-0.02117 -0.793748,-0.07408 -0.793748,-0.465665 v -0.455082 -1.502829 c 0,-0.941913 0.518582,-1.640411 1.206496,-1.640411 0.603249,0 0.910164,0.433915 0.910164,1.291162 v 1.852078 0.507998 c -0.01058,0.137583 -0.02117,0.211666 -0.07408,0.264583 -0.0635,0.09525 -0.275166,0.137583 -0.730248,0.148166 h -0.04233 v 0.380999 h 2.677575 v -0.380999 h -0.04233 c -0.698498,-0.02117 -0.793748,-0.07408 -0.793748,-0.455082 v -0.465665 -1.407579 c 0,-1.05833 0.476249,-1.735661 1.21708,-1.735661 0.603248,0 0.89958,0.455082 0.89958,1.407579 v 1.735661 0.497415 c -0.01058,0.148166 -0.02117,0.222249 -0.07408,0.275166 -0.0635,0.09525 -0.275166,0.137583 -0.730247,0.148166 h -0.04233 v 0.380999 h 2.677575 v -0.380999 h -0.04233 c -0.698498,-0.02117 -0.793748,-0.07408 -0.793748,-0.465665 v -0.455082 -1.947327 c 0,-0.656165 -0.0635,-0.878414 -0.338665,-1.238246 -0.306916,-0.391583 -0.740831,-0.603249 -1.248829,-0.603249 -0.687915,0 -1.195913,0.328083 -1.650995,1.05833 -0.179942,-0.635001 -0.75144,-1.058333 -1.460522,-1.058333 -0.645581,0 -1.111246,0.306916 -1.523995,0.973664 z m 9.948301,-0.15875 c -1.301746,0 -2.30716,1.15358 -2.30716,2.635242 0,1.449912 1.015997,2.614075 2.285993,2.614075 1.269996,0 2.285993,-1.164163 2.285993,-2.624658 0,-1.449912 -1.015997,-2.624659 -2.264826,-2.624659 z m 0,0.455082 c 0.740831,0 1.153579,0.772581 1.153579,2.169577 0,1.407579 -0.412748,2.169576 -1.174746,2.169576 -0.761997,0 -1.174746,-0.761997 -1.174746,-2.158993 0,-1.439329 0.402165,-2.18016 1.195913,-2.18016 z"
       id="text1"
       aria-label="Gizmo" />
  </g>
</svg>
