<?xml version="1.0" encoding="UTF-8"?>
<svg xmlns="http://www.w3.org/2000/svg" xmlns:xlink="http://www.w3.org/1999/xlink" width="3304.82" height="3108.5" viewBox="0 0 3304.82 3108.5">
<defs>
<clipPath id="clip-0">
<path clip-rule="evenodd" d="M 725.988281 2108.578125 L 2578.851562 2108.578125 L 2578.851562 1729.761719 L 725.988281 1729.761719 Z M 2603.460938 2157.78125 C 2617.070312 2157.78125 2628.070312 2146.769531 2628.070312 2133.171875 L 2628.070312 1705.121094 C 2628.070312 1691.488281 2617.070312 1680.480469 2603.460938 1680.480469 L 701.363281 1680.480469 C 687.757812 1680.480469 676.753906 1691.511719 676.753906 1705.121094 L 676.753906 2133.171875 C 676.753906 2146.769531 687.757812 2157.78125 701.363281 2157.78125 Z M 1985.699219 1943.738281 C 1999.308594 1943.738281 2010.339844 1932.738281 2010.339844 1919.128906 C 2010.339844 1905.519531 1999.308594 1894.488281 1985.699219 1894.488281 L 1319.128906 1894.488281 C 1305.519531 1894.488281 1294.5 1905.519531 1294.5 1919.128906 C 1294.5 1932.738281 1305.519531 1943.738281 1319.128906 1943.738281 Z M 2891.828125 2582.441406 C 2829.46875 2582.441406 2778.78125 2633.128906 2778.78125 2695.480469 C 2778.78125 2757.828125 2829.46875 2808.53125 2891.828125 2808.53125 C 2954.160156 2808.53125 3004.851562 2757.828125 3004.851562 2695.480469 C 3004.851562 2633.179688 2954.160156 2582.441406 2891.828125 2582.441406 Z M 2891.828125 2857.75 C 2981.289062 2857.75 3054.101562 2784.941406 3054.101562 2695.480469 C 3054.121094 2606.019531 2981.289062 2533.191406 2891.828125 2533.191406 C 2802.339844 2533.191406 2729.558594 2606 2729.558594 2695.480469 C 2729.558594 2784.941406 2802.339844 2857.75 2891.828125 2857.75 Z M 2891.828125 3108.5 C 3119.578125 3108.5 3304.820312 2923.230469 3304.820312 2695.480469 C 3304.820312 2467.761719 3119.578125 2282.488281 2891.828125 2282.488281 C 2664.078125 2282.488281 2478.808594 2467.761719 2478.808594 2695.480469 C 2478.808594 2923.230469 2664.050781 3108.5 2891.828125 3108.5 Z M 1652.410156 2582.441406 C 1590.058594 2582.441406 1539.390625 2633.148438 1539.390625 2695.480469 C 1539.390625 2757.828125 1590.078125 2808.53125 1652.410156 2808.53125 C 1714.769531 2808.53125 1765.460938 2757.828125 1765.460938 2695.480469 C 1765.460938 2633.128906 1714.769531 2582.441406 1652.410156 2582.441406 Z M 1652.410156 2857.75 C 1741.878906 2857.75 1814.691406 2784.941406 1814.691406 2695.480469 C 1814.691406 2606 1741.910156 2533.191406 1652.410156 2533.191406 C 1562.949219 2533.191406 1490.140625 2606.019531 1490.140625 2695.480469 C 1490.140625 2784.941406 1562.929688 2857.75 1652.410156 2857.75 Z M 1652.410156 3108.5 C 1880.171875 3108.5 2065.441406 2923.230469 2065.441406 2695.480469 C 2065.441406 2467.761719 1880.171875 2282.488281 1652.410156 2282.488281 C 1424.660156 2282.488281 1239.378906 2467.761719 1239.378906 2695.480469 C 1239.378906 2923.230469 1424.660156 3108.5 1652.410156 3108.5 Z M 413.035156 2582.441406 C 350.695312 2582.441406 300.003906 2633.148438 300.003906 2695.480469 C 300.003906 2757.828125 350.695312 2808.53125 413.035156 2808.53125 C 475.363281 2808.53125 526.054688 2757.828125 526.054688 2695.480469 C 526.054688 2633.148438 475.378906 2582.441406 413.035156 2582.441406 Z M 413.035156 2857.75 C 502.496094 2857.75 575.316406 2784.941406 575.316406 2695.480469 C 575.316406 2606.019531 502.496094 2533.191406 413.035156 2533.191406 C 323.5625 2533.191406 250.742188 2606 250.742188 2695.480469 C 250.742188 2784.941406 323.5625 2857.75 413.035156 2857.75 Z M 413.035156 3108.5 C 640.769531 3108.5 826.058594 2923.230469 826.058594 2695.480469 C 826.058594 2467.761719 640.796875 2282.488281 413.035156 2282.488281 C 185.300781 2282.488281 0 2467.761719 0 2695.480469 C 0 2923.230469 185.300781 3108.5 413.035156 3108.5 Z M 952.683594 1105.511719 L 1279.101562 1105.511719 L 1279.101562 800.78125 L 952.683594 800.78125 Z M 1115.878906 221.710938 C 1031.578125 221.710938 963.03125 290.238281 963.03125 374.539062 C 963.03125 458.839844 1031.578125 527.390625 1115.878906 527.390625 C 1200.171875 527.390625 1268.761719 458.839844 1268.761719 374.539062 C 1268.761719 290.238281 1200.171875 221.710938 1115.878906 221.710938 Z M 1115.878906 576.671875 C 1227.300781 576.671875 1318 486 1318 374.578125 C 1318 263.140625 1227.300781 172.480469 1115.878906 172.480469 C 1004.46875 172.480469 913.785156 263.171875 913.785156 374.578125 C 913.785156 486 1004.46875 576.671875 1115.878906 576.671875 Z M 1647 749.140625 C 1671.300781 749.140625 1690.980469 729.449219 1690.980469 705.171875 L 1690.980469 44.011719 C 1690.980469 19.710938 1671.28125 0.03125 1647 0.03125 L 584.785156 0.0117188 C 560.488281 0.0117188 540.816406 19.699219 540.816406 43.988281 L 540.816406 705.160156 C 540.816406 729.449219 560.488281 749.140625 584.785156 749.140625 Z M 2381.050781 344.691406 C 2245.699219 311.640625 2144.96875 189.359375 2144.96875 43.980469 C 2144.96875 19.691406 2164.671875 0 2188.96875 0 C 2213.238281 0 2232.941406 19.691406 2232.941406 43.980469 C 2232.941406 166.148438 2332.351562 265.53125 2454.511719 265.53125 C 2576.699219 265.53125 2676.109375 166.148438 2676.109375 43.980469 C 2676.109375 19.691406 2695.78125 0 2720.078125 0 C 2744.378906 0 2764.050781 19.691406 2764.050781 43.980469 C 2764.019531 206.179688 2638.601562 339.640625 2479.671875 352.488281 L 2285.621094 666.640625 L 2496.71875 821.460938 C 2508.039062 829.730469 2514.710938 842.910156 2514.710938 856.910156 L 2514.710938 1157.148438 L 2891.828125 1157.148438 C 2916.121094 1157.148438 2935.820312 1176.828125 2935.820312 1201.128906 L 2935.820312 1487.558594 C 2935.769531 1511.820312 2916.121094 1531.550781 2891.828125 1531.550781 L 413.035156 1531.550781 C 388.738281 1531.550781 369.054688 1511.851562 369.054688 1487.558594 L 369.054688 1201.128906 C 369.054688 1176.828125 388.738281 1157.148438 413.035156 1157.148438 L 2426.769531 1157.148438 L 2426.769531 879.191406 L 2200.871094 713.539062 C 2182.351562 699.96875 2177.410156 674.46875 2189.441406 654.96875 Z M 2429.238281 2739.449219 L 2114.980469 2739.449219 C 2116.339844 2724.980469 2117.078125 2710.320312 2117.078125 2695.480469 C 2117.078125 2439.238281 1908.660156 2230.851562 1652.410156 2230.851562 C 1396.171875 2230.851562 1187.75 2439.261719 1187.75 2695.480469 C 1187.75 2710.320312 1188.46875 2724.980469 1189.828125 2739.449219 L 875.609375 2739.449219 C 876.972656 2724.980469 877.695312 2710.320312 877.695312 2695.480469 C 877.695312 2439.238281 669.28125 2230.851562 413.035156 2230.851562 C 398.195312 2230.851562 383.539062 2231.578125 369.054688 2232.949219 L 369.054688 1572.480469 C 382.214844 1579.308594 397.171875 1583.171875 413.035156 1583.171875 L 2891.828125 1583.171875 C 2907.691406 1583.171875 2922.640625 1579.308594 2935.820312 1572.449219 L 2935.820312 2232.949219 C 2921.320312 2231.578125 2906.671875 2230.851562 2891.828125 2230.851562 C 2635.578125 2230.851562 2427.171875 2439.261719 2427.171875 2695.480469 C 2427.171875 2710.320312 2427.878906 2724.980469 2429.238281 2739.449219 "/>
</clipPath>
<linearGradient id="linear-pattern-0" gradientUnits="userSpaceOnUse" x1="0" y1="0" x2="1" y2="0" gradientTransform="matrix(3304.82, 0, 0, 3304.82, 0, 1554.25)">
<stop offset="0" stop-color="rgb(11.372375%, 37.254333%, 37.646484%)" stop-opacity="1"/>
<stop offset="0.0078125" stop-color="rgb(11.326599%, 37.156677%, 37.547302%)" stop-opacity="1"/>
<stop offset="0.015625" stop-color="rgb(11.238098%, 36.964417%, 37.35199%)" stop-opacity="1"/>
<stop offset="0.0234375" stop-color="rgb(11.149597%, 36.77063%, 37.155151%)" stop-opacity="1"/>
<stop offset="0.03125" stop-color="rgb(11.061096%, 36.578369%, 36.959839%)" stop-opacity="1"/>
<stop offset="0.0390625" stop-color="rgb(10.971069%, 36.384583%, 36.763%)" stop-opacity="1"/>
<stop offset="0.046875" stop-color="rgb(10.882568%, 36.192322%, 36.567688%)" stop-opacity="1"/>
<stop offset="0.0546875" stop-color="rgb(10.794067%, 35.998535%, 36.37085%)" stop-opacity="1"/>
<stop offset="0.0625" stop-color="rgb(10.705566%, 35.806274%, 36.175537%)" stop-opacity="1"/>
<stop offset="0.0703125" stop-color="rgb(10.617065%, 35.612488%, 35.978699%)" stop-opacity="1"/>
<stop offset="0.078125" stop-color="rgb(10.527039%, 35.420227%, 35.783386%)" stop-opacity="1"/>
<stop offset="0.0859375" stop-color="rgb(10.438538%, 35.22644%, 35.586548%)" stop-opacity="1"/>
<stop offset="0.09375" stop-color="rgb(10.350037%, 35.03418%, 35.391235%)" stop-opacity="1"/>
<stop offset="0.101562" stop-color="rgb(10.261536%, 34.840393%, 35.194397%)" stop-opacity="1"/>
<stop offset="0.109375" stop-color="rgb(10.171509%, 34.648132%, 34.999084%)" stop-opacity="1"/>
<stop offset="0.117188" stop-color="rgb(10.083008%, 34.454346%, 34.802246%)" stop-opacity="1"/>
<stop offset="0.125" stop-color="rgb(9.994507%, 34.262085%, 34.606934%)" stop-opacity="1"/>
<stop offset="0.132812" stop-color="rgb(9.906006%, 34.068298%, 34.410095%)" stop-opacity="1"/>
<stop offset="0.140625" stop-color="rgb(9.815979%, 33.876038%, 34.214783%)" stop-opacity="1"/>
<stop offset="0.148438" stop-color="rgb(9.727478%, 33.682251%, 34.017944%)" stop-opacity="1"/>
<stop offset="0.15625" stop-color="rgb(9.638977%, 33.48999%, 33.822632%)" stop-opacity="1"/>
<stop offset="0.164062" stop-color="rgb(9.550476%, 33.296204%, 33.625793%)" stop-opacity="1"/>
<stop offset="0.171875" stop-color="rgb(9.461975%, 33.103943%, 33.430481%)" stop-opacity="1"/>
<stop offset="0.179688" stop-color="rgb(9.371948%, 32.911682%, 33.233643%)" stop-opacity="1"/>
<stop offset="0.1875" stop-color="rgb(9.283447%, 32.717896%, 33.03833%)" stop-opacity="1"/>
<stop offset="0.195312" stop-color="rgb(9.194946%, 32.525635%, 32.841492%)" stop-opacity="1"/>
<stop offset="0.203125" stop-color="rgb(9.106445%, 32.331848%, 32.646179%)" stop-opacity="1"/>
<stop offset="0.210938" stop-color="rgb(9.016418%, 32.139587%, 32.449341%)" stop-opacity="1"/>
<stop offset="0.21875" stop-color="rgb(8.927917%, 31.945801%, 32.254028%)" stop-opacity="1"/>
<stop offset="0.226563" stop-color="rgb(8.839417%, 31.75354%, 32.05719%)" stop-opacity="1"/>
<stop offset="0.234375" stop-color="rgb(8.750916%, 31.559753%, 31.861877%)" stop-opacity="1"/>
<stop offset="0.242188" stop-color="rgb(8.662415%, 31.367493%, 31.665039%)" stop-opacity="1"/>
<stop offset="0.25" stop-color="rgb(8.572388%, 31.173706%, 31.469727%)" stop-opacity="1"/>
<stop offset="0.257812" stop-color="rgb(8.483887%, 30.981445%, 31.272888%)" stop-opacity="1"/>
<stop offset="0.265625" stop-color="rgb(8.395386%, 30.787659%, 31.077576%)" stop-opacity="1"/>
<stop offset="0.273438" stop-color="rgb(8.306885%, 30.595398%, 30.880737%)" stop-opacity="1"/>
<stop offset="0.28125" stop-color="rgb(8.216858%, 30.401611%, 30.685425%)" stop-opacity="1"/>
<stop offset="0.289062" stop-color="rgb(8.128357%, 30.209351%, 30.488586%)" stop-opacity="1"/>
<stop offset="0.296875" stop-color="rgb(8.039856%, 30.015564%, 30.293274%)" stop-opacity="1"/>
<stop offset="0.304688" stop-color="rgb(7.951355%, 29.823303%, 30.096436%)" stop-opacity="1"/>
<stop offset="0.3125" stop-color="rgb(7.861328%, 29.629517%, 29.901123%)" stop-opacity="1"/>
<stop offset="0.320312" stop-color="rgb(7.772827%, 29.437256%, 29.704285%)" stop-opacity="1"/>
<stop offset="0.328125" stop-color="rgb(7.684326%, 29.243469%, 29.508972%)" stop-opacity="1"/>
<stop offset="0.335938" stop-color="rgb(7.595825%, 29.051208%, 29.312134%)" stop-opacity="1"/>
<stop offset="0.34375" stop-color="rgb(7.507324%, 28.857422%, 29.116821%)" stop-opacity="1"/>
<stop offset="0.351562" stop-color="rgb(7.417297%, 28.665161%, 28.919983%)" stop-opacity="1"/>
<stop offset="0.359375" stop-color="rgb(7.328796%, 28.471375%, 28.72467%)" stop-opacity="1"/>
<stop offset="0.367188" stop-color="rgb(7.240295%, 28.279114%, 28.527832%)" stop-opacity="1"/>
<stop offset="0.375" stop-color="rgb(7.151794%, 28.085327%, 28.33252%)" stop-opacity="1"/>
<stop offset="0.382812" stop-color="rgb(7.061768%, 27.893066%, 28.135681%)" stop-opacity="1"/>
<stop offset="0.390625" stop-color="rgb(6.973267%, 27.69928%, 27.940369%)" stop-opacity="1"/>
<stop offset="0.398438" stop-color="rgb(6.884766%, 27.507019%, 27.74353%)" stop-opacity="1"/>
<stop offset="0.40625" stop-color="rgb(6.796265%, 27.313232%, 27.548218%)" stop-opacity="1"/>
<stop offset="0.414062" stop-color="rgb(6.707764%, 27.120972%, 27.351379%)" stop-opacity="1"/>
<stop offset="0.421875" stop-color="rgb(6.617737%, 26.927185%, 27.156067%)" stop-opacity="1"/>
<stop offset="0.429688" stop-color="rgb(6.529236%, 26.734924%, 26.959229%)" stop-opacity="1"/>
<stop offset="0.4375" stop-color="rgb(6.440735%, 26.541138%, 26.763916%)" stop-opacity="1"/>
<stop offset="0.445313" stop-color="rgb(6.352234%, 26.348877%, 26.567078%)" stop-opacity="1"/>
<stop offset="0.453125" stop-color="rgb(6.262207%, 26.15509%, 26.371765%)" stop-opacity="1"/>
<stop offset="0.460938" stop-color="rgb(6.173706%, 25.96283%, 26.174927%)" stop-opacity="1"/>
<stop offset="0.46875" stop-color="rgb(6.085205%, 25.769043%, 25.979614%)" stop-opacity="1"/>
<stop offset="0.476563" stop-color="rgb(5.996704%, 25.576782%, 25.782776%)" stop-opacity="1"/>
<stop offset="0.484375" stop-color="rgb(5.906677%, 25.382996%, 25.587463%)" stop-opacity="1"/>
<stop offset="0.492188" stop-color="rgb(5.818176%, 25.190735%, 25.390625%)" stop-opacity="1"/>
<stop offset="0.5" stop-color="rgb(5.729675%, 24.996948%, 25.195312%)" stop-opacity="1"/>
<stop offset="0.507812" stop-color="rgb(5.641174%, 24.804688%, 24.998474%)" stop-opacity="1"/>
<stop offset="0.515625" stop-color="rgb(5.552673%, 24.610901%, 24.803162%)" stop-opacity="1"/>
<stop offset="0.523438" stop-color="rgb(5.462646%, 24.41864%, 24.606323%)" stop-opacity="1"/>
<stop offset="0.53125" stop-color="rgb(5.374146%, 24.224854%, 24.411011%)" stop-opacity="1"/>
<stop offset="0.539062" stop-color="rgb(5.285645%, 24.032593%, 24.214172%)" stop-opacity="1"/>
<stop offset="0.546875" stop-color="rgb(5.197144%, 23.838806%, 24.01886%)" stop-opacity="1"/>
<stop offset="0.554688" stop-color="rgb(5.107117%, 23.646545%, 23.822021%)" stop-opacity="1"/>
<stop offset="0.5625" stop-color="rgb(5.018616%, 23.452759%, 23.626709%)" stop-opacity="1"/>
<stop offset="0.570312" stop-color="rgb(4.930115%, 23.260498%, 23.429871%)" stop-opacity="1"/>
<stop offset="0.578125" stop-color="rgb(4.841614%, 23.066711%, 23.234558%)" stop-opacity="1"/>
<stop offset="0.585938" stop-color="rgb(4.753113%, 22.874451%, 23.03772%)" stop-opacity="1"/>
<stop offset="0.59375" stop-color="rgb(4.663086%, 22.680664%, 22.842407%)" stop-opacity="1"/>
<stop offset="0.601562" stop-color="rgb(4.574585%, 22.488403%, 22.645569%)" stop-opacity="1"/>
<stop offset="0.609375" stop-color="rgb(4.486084%, 22.294617%, 22.450256%)" stop-opacity="1"/>
<stop offset="0.617188" stop-color="rgb(4.397583%, 22.102356%, 22.253418%)" stop-opacity="1"/>
<stop offset="0.625" stop-color="rgb(4.307556%, 21.908569%, 22.058105%)" stop-opacity="1"/>
<stop offset="0.632812" stop-color="rgb(4.219055%, 21.716309%, 21.861267%)" stop-opacity="1"/>
<stop offset="0.640625" stop-color="rgb(4.130554%, 21.522522%, 21.665955%)" stop-opacity="1"/>
<stop offset="0.648438" stop-color="rgb(4.042053%, 21.330261%, 21.469116%)" stop-opacity="1"/>
<stop offset="0.65625" stop-color="rgb(3.952026%, 21.136475%, 21.273804%)" stop-opacity="1"/>
<stop offset="0.664062" stop-color="rgb(3.863525%, 20.944214%, 21.076965%)" stop-opacity="1"/>
<stop offset="0.671875" stop-color="rgb(3.775024%, 20.750427%, 20.881653%)" stop-opacity="1"/>
<stop offset="0.679688" stop-color="rgb(3.686523%, 20.558167%, 20.684814%)" stop-opacity="1"/>
<stop offset="0.6875" stop-color="rgb(3.598022%, 20.36438%, 20.489502%)" stop-opacity="1"/>
<stop offset="0.695312" stop-color="rgb(3.507996%, 20.172119%, 20.292664%)" stop-opacity="1"/>
<stop offset="0.703125" stop-color="rgb(3.419495%, 19.978333%, 20.097351%)" stop-opacity="1"/>
<stop offset="0.710938" stop-color="rgb(3.330994%, 19.786072%, 19.900513%)" stop-opacity="1"/>
<stop offset="0.71875" stop-color="rgb(3.242493%, 19.592285%, 19.7052%)" stop-opacity="1"/>
<stop offset="0.726562" stop-color="rgb(3.152466%, 19.400024%, 19.508362%)" stop-opacity="1"/>
<stop offset="0.734375" stop-color="rgb(3.063965%, 19.206238%, 19.313049%)" stop-opacity="1"/>
<stop offset="0.742188" stop-color="rgb(2.975464%, 19.013977%, 19.116211%)" stop-opacity="1"/>
<stop offset="0.75" stop-color="rgb(2.886963%, 18.82019%, 18.920898%)" stop-opacity="1"/>
<stop offset="0.757812" stop-color="rgb(2.798462%, 18.62793%, 18.72406%)" stop-opacity="1"/>
<stop offset="0.765625" stop-color="rgb(2.708435%, 18.434143%, 18.528748%)" stop-opacity="1"/>
<stop offset="0.773438" stop-color="rgb(2.619934%, 18.241882%, 18.331909%)" stop-opacity="1"/>
<stop offset="0.78125" stop-color="rgb(2.531433%, 18.048096%, 18.136597%)" stop-opacity="1"/>
<stop offset="0.789062" stop-color="rgb(2.442932%, 17.855835%, 17.939758%)" stop-opacity="1"/>
<stop offset="0.796875" stop-color="rgb(2.352905%, 17.662048%, 17.744446%)" stop-opacity="1"/>
<stop offset="0.804688" stop-color="rgb(2.264404%, 17.469788%, 17.547607%)" stop-opacity="1"/>
<stop offset="0.8125" stop-color="rgb(2.175903%, 17.276001%, 17.352295%)" stop-opacity="1"/>
<stop offset="0.820312" stop-color="rgb(2.087402%, 17.08374%, 17.155457%)" stop-opacity="1"/>
<stop offset="0.828125" stop-color="rgb(1.997375%, 16.889954%, 16.960144%)" stop-opacity="1"/>
<stop offset="0.835938" stop-color="rgb(1.908875%, 16.697693%, 16.763306%)" stop-opacity="1"/>
<stop offset="0.84375" stop-color="rgb(1.820374%, 16.503906%, 16.567993%)" stop-opacity="1"/>
<stop offset="0.851563" stop-color="rgb(1.731873%, 16.311646%, 16.371155%)" stop-opacity="1"/>
<stop offset="0.859375" stop-color="rgb(1.643372%, 16.119385%, 16.175842%)" stop-opacity="1"/>
<stop offset="0.867188" stop-color="rgb(1.553345%, 15.925598%, 15.979004%)" stop-opacity="1"/>
<stop offset="0.875" stop-color="rgb(1.464844%, 15.733337%, 15.783691%)" stop-opacity="1"/>
<stop offset="0.882813" stop-color="rgb(1.376343%, 15.539551%, 15.586853%)" stop-opacity="1"/>
<stop offset="0.890625" stop-color="rgb(1.287842%, 15.34729%, 15.391541%)" stop-opacity="1"/>
<stop offset="0.898438" stop-color="rgb(1.197815%, 15.153503%, 15.194702%)" stop-opacity="1"/>
<stop offset="0.90625" stop-color="rgb(1.109314%, 14.961243%, 14.99939%)" stop-opacity="1"/>
<stop offset="0.914063" stop-color="rgb(1.020813%, 14.767456%, 14.802551%)" stop-opacity="1"/>
<stop offset="0.921875" stop-color="rgb(0.932312%, 14.575195%, 14.607239%)" stop-opacity="1"/>
<stop offset="0.929688" stop-color="rgb(0.843811%, 14.381409%, 14.4104%)" stop-opacity="1"/>
<stop offset="0.9375" stop-color="rgb(0.753784%, 14.189148%, 14.215088%)" stop-opacity="1"/>
<stop offset="0.945313" stop-color="rgb(0.665283%, 13.995361%, 14.01825%)" stop-opacity="1"/>
<stop offset="0.953125" stop-color="rgb(0.576782%, 13.803101%, 13.822937%)" stop-opacity="1"/>
<stop offset="0.960938" stop-color="rgb(0.488281%, 13.609314%, 13.626099%)" stop-opacity="1"/>
<stop offset="0.96875" stop-color="rgb(0.398254%, 13.417053%, 13.430786%)" stop-opacity="1"/>
<stop offset="0.976563" stop-color="rgb(0.309753%, 13.223267%, 13.233948%)" stop-opacity="1"/>
<stop offset="0.984375" stop-color="rgb(0.221252%, 13.031006%, 13.038635%)" stop-opacity="1"/>
<stop offset="0.992188" stop-color="rgb(0.132751%, 12.837219%, 12.841797%)" stop-opacity="1"/>
<stop offset="1" stop-color="rgb(0.0442505%, 12.644958%, 12.646484%)" stop-opacity="1"/>
</linearGradient>
</defs>
<g clip-path="url(#clip-0)">
<path fill-rule="nonzero" fill="url(#linear-pattern-0)" d="M 0 0 L 0 3108.5 L 3304.820312 3108.5 L 3304.820312 0 Z M 0 0 "/>
</g>
</svg>
